<?xml version="1.0" encoding="iso-8859-1"?>
<!-- Generator: Adobe Illustrator 19.0.0, SVG Export Plug-In . SVG Version: 6.00 Build 0)  -->
<svg version="1.1" id="Layer_1" xmlns="http://www.w3.org/2000/svg" xmlns:xlink="http://www.w3.org/1999/xlink" x="0px" y="0px"
	 viewBox="0 0 512 512" style="enable-background:new 0 0 512 512;" xml:space="preserve">
<g>
	<polygon style="fill:#FEE187;" points="427.366,326.983 498.348,256 427.366,185.017 	"/>
	<polygon style="fill:#FEE187;" points="326.983,84.634 256,13.652 185.018,84.634 	"/>
	<polygon style="fill:#FEE187;" points="185.018,427.366 256,498.348 326.983,427.366 	"/>
	<polygon style="fill:#FEE187;" points="84.635,185.017 13.652,256 84.635,326.983 	"/>
</g>
<g>
	<path style="fill:#FFC61B;" d="M340.577,426.239c-0.005-0.071-0.004-0.141-0.011-0.212c-0.059-0.605-0.167-1.195-0.303-1.775
		c-0.029-0.124-0.063-0.247-0.096-0.371c-0.153-0.579-0.333-1.147-0.557-1.693c-0.007-0.016-0.01-0.031-0.016-0.048
		c-0.003-0.007-0.005-0.012-0.008-0.019c-0.051-0.12-0.109-0.235-0.162-0.352c-0.113-0.253-0.231-0.501-0.358-0.744
		c-0.068-0.13-0.141-0.257-0.213-0.384c-0.135-0.24-0.278-0.474-0.427-0.704c-0.067-0.102-0.132-0.206-0.202-0.309
		c-0.455-0.661-0.964-1.275-1.519-1.84c-0.071-0.071-0.143-0.141-0.216-0.21c-0.217-0.212-0.441-0.415-0.672-0.61
		c-0.089-0.075-0.177-0.152-0.269-0.225c-0.259-0.209-0.526-0.408-0.799-0.598c-0.056-0.038-0.109-0.082-0.165-0.119
		c-0.315-0.212-0.643-0.407-0.976-0.592c-0.127-0.07-0.257-0.134-0.385-0.201c-0.223-0.115-0.448-0.224-0.677-0.326
		c-0.147-0.066-0.294-0.131-0.444-0.191c-0.258-0.105-0.52-0.199-0.784-0.287c-0.115-0.038-0.228-0.083-0.344-0.119
		c-0.359-0.111-0.726-0.202-1.096-0.283c-0.138-0.029-0.277-0.053-0.415-0.079c-0.278-0.052-0.56-0.094-0.844-0.128
		c-0.131-0.016-0.262-0.033-0.395-0.045c-0.411-0.037-0.825-0.063-1.242-0.063H185.019H98.286v-86.731V185.019v-0.001
		c0-0.419-0.026-0.833-0.063-1.244c-0.012-0.13-0.029-0.258-0.044-0.388c-0.034-0.287-0.078-0.572-0.131-0.855
		c-0.025-0.135-0.048-0.27-0.076-0.404c-0.082-0.377-0.175-0.749-0.287-1.115c-0.031-0.102-0.071-0.202-0.105-0.304
		c-0.091-0.276-0.191-0.549-0.299-0.818c-0.057-0.143-0.12-0.284-0.183-0.425c-0.106-0.239-0.22-0.474-0.34-0.706
		c-0.061-0.12-0.121-0.242-0.187-0.359c-0.187-0.339-0.386-0.67-0.602-0.992c-0.027-0.041-0.059-0.079-0.086-0.12
		c-0.201-0.291-0.412-0.573-0.635-0.849c-0.066-0.082-0.134-0.16-0.201-0.24c-0.206-0.244-0.42-0.481-0.644-0.709
		c-0.06-0.061-0.119-0.124-0.18-0.186c-0.572-0.565-1.195-1.081-1.865-1.54c-0.087-0.06-0.176-0.116-0.265-0.173
		c-0.246-0.161-0.498-0.314-0.756-0.459c-0.113-0.064-0.227-0.128-0.341-0.188c-0.268-0.141-0.542-0.272-0.82-0.396
		c-0.094-0.042-0.186-0.089-0.28-0.128c-0.012-0.004-0.022-0.011-0.034-0.015c-0.027-0.011-0.056-0.016-0.083-0.027
		c-0.532-0.217-1.083-0.392-1.646-0.541c-0.131-0.034-0.261-0.07-0.392-0.101c-0.576-0.134-1.16-0.242-1.762-0.3
		c-0.078-0.008-0.154-0.005-0.231-0.012c-0.367-0.029-0.736-0.056-1.11-0.056c-0.149,0-0.292,0.018-0.44,0.022
		c-0.169,0.005-0.336,0.014-0.505,0.026c-0.552,0.037-1.095,0.101-1.626,0.202c-0.037,0.007-0.075,0.01-0.113,0.018
		c-0.594,0.117-1.167,0.284-1.731,0.476c-0.12,0.041-0.239,0.086-0.358,0.131c-0.513,0.192-1.014,0.408-1.498,0.658
		c-0.055,0.029-0.112,0.052-0.167,0.081c-0.52,0.279-1.014,0.598-1.491,0.939c-0.123,0.086-0.242,0.177-0.36,0.269
		c-0.461,0.354-0.906,0.726-1.319,1.136c-0.015,0.015-0.033,0.026-0.048,0.041L3.999,246.347c-5.331,5.331-5.331,13.975,0,19.308
		l66.983,66.983v94.729c0,7.539,6.113,13.652,13.652,13.652h94.73l66.983,66.984c2.561,2.56,6.033,3.999,9.653,3.999
		c3.62,0,7.092-1.439,9.653-3.999l70.981-70.983c0.005-0.005,0.011-0.014,0.016-0.021c0.422-0.423,0.805-0.883,1.17-1.36
		c0.085-0.112,0.169-0.223,0.25-0.336c0.347-0.483,0.67-0.986,0.953-1.513c0.02-0.04,0.037-0.082,0.057-0.121
		c0.261-0.498,0.483-1.017,0.681-1.548c0.041-0.111,0.083-0.218,0.12-0.329c0.195-0.569,0.363-1.149,0.482-1.749
		c0.005-0.027,0.007-0.055,0.012-0.081c0.105-0.542,0.168-1.098,0.206-1.66c0.011-0.164,0.019-0.326,0.025-0.49
		c0.005-0.15,0.023-0.296,0.023-0.448C340.633,426.986,340.607,426.612,340.577,426.239z M32.958,256l38.024-38.024v76.046
		L32.958,256z M256,479.04l-38.024-38.024h76.047L256,479.04z"/>
	<path style="fill:#FFC61B;" d="M508.002,246.347l-66.983-66.984V84.634c0-7.539-6.113-13.652-13.652-13.652h-94.73L265.653,3.999
		C263.092,1.439,259.621,0,256,0c-3.62,0-7.092,1.439-9.653,3.999l-66.983,66.984h-94.73c-7.539,0-13.652,6.113-13.652,13.652
		c0,7.539,6.113,13.652,13.652,13.652h329.081v86.731V326.98v0.001c0,0.419,0.026,0.833,0.063,1.244
		c0.012,0.13,0.029,0.258,0.044,0.388c0.034,0.287,0.078,0.572,0.131,0.855c0.025,0.135,0.048,0.27,0.076,0.404
		c0.082,0.377,0.175,0.749,0.287,1.115c0.031,0.102,0.071,0.202,0.105,0.304c0.091,0.276,0.191,0.549,0.299,0.818
		c0.057,0.143,0.12,0.284,0.183,0.425c0.106,0.239,0.22,0.474,0.34,0.706c0.061,0.12,0.121,0.242,0.187,0.359
		c0.187,0.339,0.386,0.67,0.602,0.992c0.027,0.041,0.059,0.079,0.086,0.12c0.201,0.291,0.412,0.573,0.635,0.849
		c0.066,0.082,0.134,0.16,0.201,0.24c0.206,0.244,0.421,0.481,0.644,0.709c0.06,0.061,0.119,0.124,0.18,0.186
		c0.572,0.565,1.195,1.081,1.865,1.54c0.087,0.06,0.176,0.116,0.265,0.173c0.246,0.161,0.498,0.314,0.756,0.459
		c0.113,0.064,0.227,0.128,0.341,0.188c0.268,0.141,0.542,0.272,0.82,0.396c0.094,0.042,0.186,0.089,0.28,0.128
		c0.012,0.004,0.022,0.011,0.034,0.015c0.109,0.045,0.221,0.076,0.33,0.117c0.302,0.116,0.602,0.231,0.913,0.326
		c0.157,0.048,0.317,0.081,0.475,0.121c0.272,0.072,0.541,0.149,0.819,0.203c0.263,0.053,0.527,0.085,0.792,0.12
		c0.176,0.025,0.349,0.06,0.528,0.078c0.455,0.045,0.909,0.07,1.362,0.07c0.456,0,0.912-0.025,1.365-0.07
		c0.199-0.02,0.393-0.059,0.59-0.086c0.242-0.035,0.486-0.063,0.726-0.112c0.272-0.055,0.536-0.128,0.801-0.199
		c0.162-0.042,0.326-0.076,0.487-0.126c0.273-0.083,0.539-0.184,0.805-0.284c0.152-0.056,0.304-0.104,0.455-0.167
		c0.246-0.102,0.482-0.221,0.719-0.337c0.165-0.079,0.333-0.152,0.494-0.238c0.209-0.112,0.407-0.239,0.609-0.362
		c0.182-0.109,0.367-0.212,0.543-0.33c0.176-0.117,0.341-0.25,0.511-0.375c0.19-0.141,0.384-0.273,0.567-0.423
		c0.164-0.135,0.315-0.285,0.472-0.427c0.171-0.154,0.347-0.299,0.511-0.461l70.981-70.981
		C513.333,260.324,513.333,251.678,508.002,246.347z M217.976,70.983L256,32.958l38.024,38.024H217.976z M441.018,294.023v-76.046
		l38.024,38.024L441.018,294.023z"/>
	<path style="fill:#FFC61B;" d="M256,199.76c-24.841,0-45.051-20.21-45.051-45.051c0-7.539,6.113-13.652,13.652-13.652
		s13.652,6.113,13.652,13.652c0,9.786,7.962,17.747,17.747,17.747c9.786,0,17.747-7.962,17.747-17.747s-7.962-17.747-17.747-17.747
		c-7.539,0-13.652-6.113-13.652-13.652s6.113-13.652,13.652-13.652c24.841,0,45.051,20.21,45.051,45.051S280.841,199.76,256,199.76z
		"/>
	<path style="fill:#FFC61B;" d="M357.269,258.459H154.731c-7.539,0-13.652-6.113-13.652-13.652s6.113-13.652,13.652-13.652h202.537
		c7.539,0,13.652,6.113,13.652,13.652S364.808,258.459,357.269,258.459z"/>
	<path style="fill:#FFC61B;" d="M357.269,320.574H154.731c-7.539,0-13.652-6.113-13.652-13.652c0-7.539,6.113-13.652,13.652-13.652
		h202.537c7.539,0,13.652,6.113,13.652,13.652C370.92,314.461,364.808,320.574,357.269,320.574z"/>
	<path style="fill:#FFC61B;" d="M261.645,382.69H154.733c-7.539,0-13.652-6.113-13.652-13.652c0-7.539,6.113-13.652,13.652-13.652
		h106.913c7.539,0,13.652,6.113,13.652,13.652C275.297,376.577,269.184,382.69,261.645,382.69z"/>
</g>
<g>
</g>
<g>
</g>
<g>
</g>
<g>
</g>
<g>
</g>
<g>
</g>
<g>
</g>
<g>
</g>
<g>
</g>
<g>
</g>
<g>
</g>
<g>
</g>
<g>
</g>
<g>
</g>
<g>
</g>
</svg>
